<?xml version="1.0" encoding="utf-8"?>
<!-- Generator: Adobe Illustrator 25.2.1, SVG Export Plug-In . SVG Version: 6.00 Build 0)  -->
<svg version="1.1" id="Layer_1" xmlns="http://www.w3.org/2000/svg" xmlns:xlink="http://www.w3.org/1999/xlink" x="0px" y="0px"
	 viewBox="0 0 612 792" style="enable-background:new 0 0 612 792;" xml:space="preserve">
<style type="text/css">
	.st0{fill:#68B6C5;}
	.st1{fill:#1C3F6B;}
	.st2{opacity:0.6;enable-background:new    ;}
	.st3{fill:#EAB443;}
	.st4{fill:#8CC1BA;}
	.st5{fill:#E67570;}
	.st6{fill:#E9B445;}
	.st7{fill:#68B6C6;}
</style>
<g id="Guides">
</g>
<g id="Crop_Marks">
	<polygon class="st0" points="102.56,111.71 94.04,111.71 100.06,105.69 95.72,101.34 89.7,107.36 89.7,98.85 83.55,98.85 
		83.55,107.36 77.53,101.34 73.18,105.69 79.2,111.71 70.69,111.71 70.69,117.85 79.2,117.85 73.18,123.87 77.53,128.22 
		83.55,122.2 83.55,130.71 89.7,130.71 89.7,122.2 95.72,128.22 100.06,123.87 94.04,117.85 102.56,117.85 	"/>
	<polygon class="st1" points="169.14,69.09 160.62,69.09 166.65,63.07 162.3,58.72 156.28,64.74 156.28,56.23 150.13,56.23 
		150.13,64.74 144.11,58.72 139.77,63.07 145.79,69.09 137.27,69.09 137.27,75.24 145.79,75.24 139.77,81.26 144.11,85.6 
		150.13,79.58 150.13,88.1 156.28,88.1 156.28,79.58 162.3,85.6 166.65,81.26 160.62,75.24 169.14,75.24 	"/>
	<polygon class="st2" points="211.26,109.96 202.74,109.96 208.77,103.94 204.42,99.59 198.4,105.61 198.4,97.1 192.25,97.1 
		192.25,105.61 186.23,99.59 181.89,103.94 187.91,109.96 179.39,109.96 179.39,116.1 187.91,116.1 181.89,122.13 186.23,126.47 
		192.25,120.45 192.25,128.97 198.4,128.97 198.4,120.45 204.42,126.47 208.77,122.13 202.74,116.1 211.26,116.1 	"/>
	<polygon class="st2" points="31.38,81.39 22.87,81.39 28.89,75.37 24.54,71.03 18.52,77.05 18.52,68.53 12.38,68.53 12.38,77.05 
		6.36,71.03 2.01,75.37 8.03,81.39 -0.48,81.39 -0.48,87.54 8.03,87.54 2.01,93.56 6.36,97.91 12.38,91.89 12.38,100.4 18.52,100.4 
		18.52,91.89 24.54,97.91 28.89,93.56 22.87,87.54 31.38,87.54 	"/>
	<polygon class="st3" points="250.07,60.09 241.55,60.09 247.58,54.07 243.23,49.72 237.21,55.75 237.21,47.23 231.06,47.23 
		231.06,55.75 225.04,49.72 220.7,54.07 226.72,60.09 218.2,60.09 218.2,66.24 226.72,66.24 220.7,72.26 225.04,76.6 231.06,70.58 
		231.06,79.1 237.21,79.1 237.21,70.58 243.23,76.6 247.58,72.26 241.55,66.24 250.07,66.24 	"/>
	<polygon class="st4" points="211.26,14.37 202.74,14.37 208.77,8.35 204.42,4 198.4,10.02 198.4,1.51 192.25,1.51 192.25,10.02 
		186.23,4 181.89,8.35 187.91,14.37 179.39,14.37 179.39,20.52 187.91,20.52 181.89,26.54 186.23,30.88 192.25,24.86 192.25,33.38 
		198.4,33.38 198.4,24.86 204.42,30.88 208.77,26.54 202.74,20.52 211.26,20.52 	"/>
	<polygon class="st5" points="255.83,157.18 247.31,157.18 253.34,151.16 248.99,146.81 242.97,152.83 242.97,144.32 236.82,144.32 
		236.82,152.83 230.8,146.81 226.46,151.16 232.48,157.18 223.96,157.18 223.96,163.33 232.48,163.33 226.46,169.35 230.8,173.69 
		236.82,167.67 236.82,176.19 242.97,176.19 242.97,167.67 248.99,173.69 253.34,169.35 247.31,163.33 255.83,163.33 	"/>
	<polygon class="st4" points="160.89,145.41 152.37,145.41 158.39,139.39 154.05,135.04 148.03,141.06 148.03,132.55 141.88,132.55 
		141.88,141.06 135.86,135.04 131.51,139.39 137.53,145.41 129.02,145.41 129.02,151.56 137.53,151.56 131.51,157.58 135.86,161.92 
		141.88,155.9 141.88,164.42 148.03,164.42 148.03,155.9 154.05,161.92 158.39,157.58 152.37,151.56 160.89,151.56 	"/>
	<polygon class="st6" points="100.38,50.42 91.87,50.42 97.89,44.4 93.54,40.05 87.52,46.07 87.52,37.56 81.38,37.56 81.38,46.07 
		75.36,40.05 71.01,44.4 77.03,50.42 68.52,50.42 68.52,56.56 77.03,56.56 71.01,62.59 75.36,66.93 81.38,60.91 81.38,69.42 
		87.52,69.42 87.52,60.91 93.54,66.93 97.89,62.59 91.87,56.56 100.38,56.56 	"/>
	<polygon class="st6" points="47.32,141.25 38.8,141.25 44.82,135.23 40.48,130.88 34.46,136.9 34.46,128.39 28.31,128.39 
		28.31,136.9 22.29,130.88 17.94,135.23 23.96,141.25 15.45,141.25 15.45,147.39 23.96,147.39 17.94,153.41 22.29,157.76 
		28.31,151.74 28.31,160.25 34.46,160.25 34.46,151.74 40.48,157.76 44.82,153.41 38.8,147.39 47.32,147.39 	"/>
	<polygon class="st7" points="275.41,111.71 266.89,111.71 272.91,105.69 268.57,101.34 262.55,107.36 262.55,98.85 256.4,98.85 
		256.4,107.36 250.38,101.34 246.03,105.69 252.05,111.71 243.54,111.71 243.54,117.85 252.05,117.85 246.03,123.87 250.38,128.22 
		256.4,122.2 256.4,130.71 262.55,130.71 262.55,122.2 268.57,128.22 272.91,123.87 266.89,117.85 275.41,117.85 	"/>
	<polygon class="st2" points="577.22,41.18 568.71,41.18 574.73,35.16 570.38,30.81 564.36,36.83 564.36,28.32 558.21,28.32 
		558.21,36.83 552.19,30.81 547.85,35.16 553.87,41.18 545.35,41.18 545.35,47.32 553.87,47.32 547.85,53.35 552.19,57.69 
		558.21,51.67 558.21,60.18 564.36,60.18 564.36,51.67 570.38,57.69 574.73,53.35 568.71,47.32 577.22,47.32 	"/>
	<polygon class="st3" points="616.03,-8.69 607.52,-8.69 613.54,-14.71 609.19,-19.06 603.17,-13.03 603.17,-21.55 597.02,-21.55 
		597.02,-13.03 591,-19.06 586.66,-14.71 592.68,-8.69 584.16,-8.69 584.16,-2.54 592.68,-2.54 586.66,3.48 591,7.82 597.02,1.8 
		597.02,10.32 603.17,10.32 603.17,1.8 609.19,7.82 613.54,3.48 607.52,-2.54 616.03,-2.54 	"/>
	<polygon class="st5" points="621.79,88.4 613.28,88.4 619.3,82.38 614.95,78.03 608.93,84.05 608.93,75.54 602.79,75.54 
		602.79,84.05 596.76,78.03 592.42,82.38 598.44,88.4 589.92,88.4 589.92,94.55 598.44,94.55 592.42,100.57 596.76,104.91 
		602.79,98.89 602.79,107.41 608.93,107.41 608.93,98.89 614.95,104.91 619.3,100.57 613.28,94.55 621.79,94.55 	"/>
	<polygon class="st7" points="137.27,-1.56 128.76,-1.56 134.78,-7.58 130.43,-11.93 124.41,-5.91 124.41,-14.42 118.27,-14.42 
		118.27,-5.91 112.25,-11.93 107.9,-7.58 113.92,-1.56 105.41,-1.56 105.41,4.58 113.92,4.58 107.9,10.6 112.25,14.95 118.27,8.93 
		118.27,17.44 124.41,17.44 124.41,8.93 130.43,14.95 134.78,10.6 128.76,4.58 137.27,4.58 	"/>
	<polygon class="st5" points="288.05,1.64 279.53,1.64 285.55,-4.38 281.21,-8.72 275.19,-2.7 275.19,-11.22 269.04,-11.22 
		269.04,-2.7 263.02,-8.72 258.68,-4.38 264.7,1.64 256.18,1.64 256.18,7.79 264.7,7.79 258.68,13.81 263.02,18.16 269.04,12.13 
		269.04,20.65 275.19,20.65 275.19,12.13 281.21,18.16 285.55,13.81 279.53,7.79 288.05,7.79 	"/>
	<polygon class="st5" points="47.32,14.37 38.8,14.37 44.82,8.35 40.48,4 34.46,10.02 34.46,1.51 28.31,1.51 28.31,10.02 22.29,4 
		17.94,8.35 23.96,14.37 15.45,14.37 15.45,20.52 23.96,20.52 17.94,26.54 22.29,30.88 28.31,24.86 28.31,33.38 34.46,33.38 
		34.46,24.86 40.48,30.88 44.82,26.54 38.8,20.52 47.32,20.52 	"/>
	<polygon class="st0" points="378.32,76.02 386.83,76.02 380.81,70 385.16,65.66 391.18,71.68 391.18,63.16 397.33,63.16 
		397.33,71.68 403.35,65.66 407.69,70 401.67,76.02 410.19,76.02 410.19,82.17 401.67,82.17 407.69,88.19 403.35,92.54 
		397.33,86.52 397.33,95.03 391.18,95.03 391.18,86.52 385.16,92.54 380.81,88.19 386.83,82.17 378.32,82.17 	"/>
	<polygon class="st1" points="573.99,176.44 582.51,176.44 576.49,170.42 580.83,166.08 586.85,172.1 586.85,163.58 593,163.58 
		593,172.1 599.02,166.08 603.36,170.42 597.34,176.44 605.86,176.44 605.86,182.59 597.34,182.59 603.36,188.61 599.02,192.96 
		593,186.94 593,195.45 586.85,195.45 586.85,186.94 580.83,192.96 576.49,188.61 582.51,182.59 573.99,182.59 	"/>
	<polygon class="st2" points="327.95,115.33 336.46,115.33 330.44,109.31 334.79,104.96 340.81,110.98 340.81,102.47 346.95,102.47 
		346.95,110.98 352.98,104.96 357.32,109.31 351.3,115.33 359.81,115.33 359.81,121.48 351.3,121.48 357.32,127.5 352.98,131.84 
		346.95,125.82 346.95,134.34 340.81,134.34 340.81,125.82 334.79,131.84 330.44,127.5 336.46,121.48 327.95,121.48 	"/>
	<polygon class="st2" points="488.62,85.44 497.13,85.44 491.11,79.42 495.45,75.07 501.48,81.09 501.48,72.58 507.62,72.58 
		507.62,81.09 513.64,75.07 517.99,79.42 511.97,85.44 520.48,85.44 520.48,91.58 511.97,91.58 517.99,97.6 513.64,101.95 
		507.62,95.93 507.62,104.44 501.48,104.44 501.48,95.93 495.45,101.95 491.11,97.6 497.13,91.58 488.62,91.58 	"/>
	<polygon class="st2" points="80.21,183.66 88.72,183.66 82.7,177.64 87.05,173.3 93.07,179.32 93.07,170.8 99.21,170.8 
		99.21,179.32 105.23,173.3 109.58,177.64 103.56,183.66 112.07,183.66 112.07,189.81 103.56,189.81 109.58,195.83 105.23,200.18 
		99.21,194.16 99.21,202.67 93.07,202.67 93.07,194.16 87.05,200.18 82.7,195.83 88.72,189.81 80.21,189.81 	"/>
	<polygon class="st1" points="289.14,65.46 297.65,65.46 291.63,59.44 295.98,55.1 302,61.12 302,52.6 308.14,52.6 308.14,61.12 
		314.17,55.1 318.51,59.44 312.49,65.46 321.01,65.46 321.01,71.61 312.49,71.61 318.51,77.63 314.17,81.97 308.14,75.95 
		308.14,84.47 302,84.47 302,75.95 295.98,81.97 291.63,77.63 297.65,71.61 289.14,71.61 	"/>
	<polygon class="st4" points="331.39,7.24 339.91,7.24 333.89,1.22 338.23,-3.12 344.25,2.9 344.25,-5.62 350.4,-5.62 350.4,2.9 
		356.42,-3.12 360.77,1.22 354.75,7.24 363.26,7.24 363.26,13.39 354.75,13.39 360.77,19.41 356.42,23.76 350.4,17.74 350.4,26.25 
		344.25,26.25 344.25,17.74 338.23,23.76 333.89,19.41 339.91,13.39 331.39,13.39 	"/>
	<polygon class="st4" points="422.89,161.34 431.4,161.34 425.38,155.32 429.73,150.98 435.75,157 435.75,148.48 441.9,148.48 
		441.9,157 447.92,150.98 452.26,155.32 446.24,161.34 454.76,161.34 454.76,167.49 446.24,167.49 452.26,173.51 447.92,177.86 
		441.9,171.84 441.9,180.35 435.75,180.35 435.75,171.84 429.73,177.86 425.38,173.51 431.4,167.49 422.89,167.49 	"/>
	<polygon class="st6" points="438.82,55.79 447.34,55.79 441.32,49.77 445.66,45.42 451.68,51.44 451.68,42.93 457.83,42.93 
		457.83,51.44 463.85,45.42 468.2,49.77 462.18,55.79 470.69,55.79 470.69,61.94 462.18,61.94 468.2,67.96 463.85,72.3 
		457.83,66.28 457.83,74.8 451.68,74.8 451.68,66.28 445.66,72.3 441.32,67.96 447.34,61.94 438.82,61.94 	"/>
	<polygon class="st6" points="491.89,146.62 500.4,146.62 494.38,140.6 498.73,136.25 504.75,142.27 504.75,133.76 510.9,133.76 
		510.9,142.27 516.92,136.25 521.26,140.6 515.24,146.62 523.76,146.62 523.76,152.76 515.24,152.76 521.26,158.78 516.92,163.13 
		510.9,157.11 510.9,165.62 504.75,165.62 504.75,157.11 498.73,163.13 494.38,158.78 500.4,152.76 491.89,152.76 	"/>
	<polygon class="st7" points="406.96,-1.56 415.47,-1.56 409.45,-7.58 413.8,-11.93 419.82,-5.91 419.82,-14.42 425.96,-14.42 
		425.96,-5.91 431.98,-11.93 436.33,-7.58 430.31,-1.56 438.82,-1.56 438.82,4.58 430.31,4.58 436.33,10.6 431.98,14.95 
		425.96,8.93 425.96,17.44 419.82,17.44 419.82,8.93 413.8,14.95 409.45,10.6 415.47,4.58 406.96,4.58 	"/>
	<polygon class="st5" points="488.62,-1.56 497.13,-1.56 491.11,-7.58 495.45,-11.93 501.48,-5.91 501.48,-14.42 507.62,-14.42 
		507.62,-5.91 513.64,-11.93 517.99,-7.58 511.97,-1.56 520.48,-1.56 520.48,4.58 511.97,4.58 517.99,10.6 513.64,14.95 
		507.62,8.93 507.62,17.44 501.48,17.44 501.48,8.93 495.45,14.95 491.11,10.6 497.13,4.58 488.62,4.58 	"/>
	<polygon class="st0" points="102.56,767.17 94.04,767.17 100.06,761.14 95.72,756.8 89.7,762.82 89.7,754.31 83.55,754.31 
		83.55,762.82 77.53,756.8 73.18,761.14 79.2,767.17 70.69,767.17 70.69,773.31 79.2,773.31 73.18,779.33 77.53,783.68 
		83.55,777.66 83.55,786.17 89.7,786.17 89.7,777.66 95.72,783.68 100.06,779.33 94.04,773.31 102.56,773.31 	"/>
	<polygon class="st1" points="169.14,724.55 160.62,724.55 166.65,718.53 162.3,714.18 156.28,720.2 156.28,711.69 150.13,711.69 
		150.13,720.2 144.11,714.18 139.77,718.53 145.79,724.55 137.27,724.55 137.27,730.7 145.79,730.7 139.77,736.72 144.11,741.06 
		150.13,735.04 150.13,743.56 156.28,743.56 156.28,735.04 162.3,741.06 166.65,736.72 160.62,730.7 169.14,730.7 	"/>
	<polygon class="st2" points="211.26,765.42 202.74,765.42 208.77,759.4 204.42,755.05 198.4,761.07 198.4,752.56 192.25,752.56 
		192.25,761.07 186.23,755.05 181.89,759.4 187.91,765.42 179.39,765.42 179.39,771.56 187.91,771.56 181.89,777.58 186.23,781.93 
		192.25,775.91 192.25,784.42 198.4,784.42 198.4,775.91 204.42,781.93 208.77,777.58 202.74,771.56 211.26,771.56 	"/>
	<polygon class="st2" points="31.38,736.85 22.87,736.85 28.89,730.83 24.54,726.49 18.52,732.51 18.52,723.99 12.38,723.99 
		12.38,732.51 6.36,726.49 2.01,730.83 8.03,736.85 -0.48,736.85 -0.48,743 8.03,743 2.01,749.02 6.36,753.37 12.38,747.35 
		12.38,755.86 18.52,755.86 18.52,747.35 24.54,753.37 28.89,749.02 22.87,743 31.38,743 	"/>
	<polygon class="st3" points="250.07,715.55 241.55,715.55 247.58,709.53 243.23,705.18 237.21,711.2 237.21,702.69 231.06,702.69 
		231.06,711.2 225.04,705.18 220.7,709.53 226.72,715.55 218.2,715.55 218.2,721.7 226.72,721.7 220.7,727.72 225.04,732.06 
		231.06,726.04 231.06,734.56 237.21,734.56 237.21,726.04 243.23,732.06 247.58,727.72 241.55,721.7 250.07,721.7 	"/>
	<polygon class="st4" points="211.26,669.83 202.74,669.83 208.77,663.81 204.42,659.46 198.4,665.48 198.4,656.97 192.25,656.97 
		192.25,665.48 186.23,659.46 181.89,663.81 187.91,669.83 179.39,669.83 179.39,675.98 187.91,675.98 181.89,682 186.23,686.34 
		192.25,680.32 192.25,688.84 198.4,688.84 198.4,680.32 204.42,686.34 208.77,682 202.74,675.98 211.26,675.98 	"/>
	<polygon class="st6" points="100.38,705.88 91.87,705.88 97.89,699.86 93.54,695.51 87.52,701.53 87.52,693.02 81.38,693.02 
		81.38,701.53 75.36,695.51 71.01,699.86 77.03,705.88 68.52,705.88 68.52,712.02 77.03,712.02 71.01,718.04 75.36,722.39 
		81.38,716.37 81.38,724.88 87.52,724.88 87.52,716.37 93.54,722.39 97.89,718.04 91.87,712.02 100.38,712.02 	"/>
	<polygon class="st6" points="47.32,796.71 38.8,796.71 44.82,790.69 40.48,786.34 34.46,792.36 34.46,783.85 28.31,783.85 
		28.31,792.36 22.29,786.34 17.94,790.69 23.96,796.71 15.45,796.71 15.45,802.85 23.96,802.85 17.94,808.87 22.29,813.22 
		28.31,807.2 28.31,815.71 34.46,815.71 34.46,807.2 40.48,813.22 44.82,808.87 38.8,802.85 47.32,802.85 	"/>
	<polygon class="st7" points="275.41,781.92 266.89,781.92 272.91,775.89 268.57,771.55 262.55,777.57 262.55,769.06 256.4,769.06 
		256.4,777.57 250.38,771.55 246.03,775.89 252.05,781.92 243.54,781.92 243.54,788.06 252.05,788.06 246.03,794.08 250.38,798.43 
		256.4,792.41 256.4,800.92 262.55,800.92 262.55,792.41 268.57,798.43 272.91,794.08 266.89,788.06 275.41,788.06 	"/>
	<polygon class="st2" points="458.86,657.1 450.35,657.1 456.37,651.08 452.02,646.74 446,652.76 446,644.24 439.86,644.24 
		439.86,652.76 433.84,646.74 429.49,651.08 435.51,657.1 427,657.1 427,663.25 435.51,663.25 429.49,669.27 433.84,673.61 
		439.86,667.59 439.86,676.11 446,676.11 446,667.59 452.02,673.61 456.37,669.27 450.35,663.25 458.86,663.25 	"/>
	<polygon class="st5" points="393.69,538.48 385.17,538.48 391.19,532.46 386.85,528.12 380.83,534.14 380.83,525.62 374.68,525.62 
		374.68,534.14 368.66,528.12 364.31,532.46 370.34,538.48 361.82,538.48 361.82,544.63 370.34,544.63 364.31,550.65 368.66,555 
		374.68,548.97 374.68,557.49 380.83,557.49 380.83,548.97 386.85,555 391.19,550.65 385.17,544.63 393.69,544.63 	"/>
	<polygon class="st5" points="511.51,710.81 503,710.81 509.02,704.79 504.67,700.44 498.65,706.46 498.65,697.95 492.5,697.95 
		492.5,706.46 486.48,700.44 482.14,704.79 488.16,710.81 479.64,710.81 479.64,716.95 488.16,716.95 482.14,722.97 486.48,727.32 
		492.5,721.3 492.5,729.81 498.65,729.81 498.65,721.3 504.67,727.32 509.02,722.97 503,716.95 511.51,716.95 	"/>
	<polygon class="st3" points="458.86,590.74 450.35,590.74 456.37,584.72 452.02,580.38 446,586.4 446,577.88 439.86,577.88 
		439.86,586.4 433.84,580.38 429.49,584.72 435.51,590.74 427,590.74 427,596.89 435.51,596.89 429.49,602.91 433.84,607.25 
		439.86,601.23 439.86,609.75 446,609.75 446,601.23 452.02,607.25 456.37,602.91 450.35,596.89 458.86,596.89 	"/>
	<polygon class="st7" points="389.07,605.03 380.56,605.03 386.58,599.01 382.23,594.67 376.21,600.69 376.21,592.17 370.06,592.17 
		370.06,600.69 364.04,594.67 359.7,599.01 365.72,605.03 357.2,605.03 357.2,611.18 365.72,611.18 359.7,617.2 364.04,621.55 
		370.06,615.53 370.06,624.04 376.21,624.04 376.21,615.53 382.23,621.55 386.58,617.2 380.56,611.18 389.07,611.18 	"/>
	<polygon class="st7" points="137.27,653.9 128.76,653.9 134.78,647.88 130.43,643.53 124.41,649.55 124.41,641.04 118.27,641.04 
		118.27,649.55 112.25,643.53 107.9,647.88 113.92,653.9 105.41,653.9 105.41,660.04 113.92,660.04 107.9,666.06 112.25,670.41 
		118.27,664.39 118.27,672.9 124.41,672.9 124.41,664.39 130.43,670.41 134.78,666.06 128.76,660.04 137.27,660.04 	"/>
	<polygon class="st5" points="288.05,657.1 279.53,657.1 285.55,651.08 281.21,646.74 275.19,652.76 275.19,644.24 269.04,644.24 
		269.04,652.76 263.02,646.74 258.68,651.08 264.7,657.1 256.18,657.1 256.18,663.25 264.7,663.25 258.68,669.27 263.02,673.61 
		269.04,667.59 269.04,676.11 275.19,676.11 275.19,667.59 281.21,673.61 285.55,669.27 279.53,663.25 288.05,663.25 	"/>
	<polygon class="st5" points="47.32,669.83 38.8,669.83 44.82,663.81 40.48,659.46 34.46,665.48 34.46,656.97 28.31,656.97 
		28.31,665.48 22.29,659.46 17.94,663.81 23.96,669.83 15.45,669.83 15.45,675.98 23.96,675.98 17.94,682 22.29,686.34 
		28.31,680.32 28.31,688.84 34.46,688.84 34.46,680.32 40.48,686.34 44.82,682 38.8,675.98 47.32,675.98 	"/>
	<polygon class="st0" points="378.32,731.48 386.83,731.48 380.81,725.46 385.16,721.12 391.18,727.14 391.18,718.62 397.33,718.62 
		397.33,727.14 403.35,721.12 407.69,725.46 401.67,731.48 410.19,731.48 410.19,737.63 401.67,737.63 407.69,743.65 403.35,748 
		397.33,741.98 397.33,750.49 391.18,750.49 391.18,741.98 385.16,748 380.81,743.65 386.83,737.63 378.32,737.63 	"/>
	<polygon class="st2" points="327.95,770.79 336.46,770.79 330.44,764.77 334.79,760.42 340.81,766.44 340.81,757.93 346.95,757.93 
		346.95,766.44 352.98,760.42 357.32,764.77 351.3,770.79 359.81,770.79 359.81,776.93 351.3,776.93 357.32,782.96 352.98,787.3 
		346.95,781.28 346.95,789.79 340.81,789.79 340.81,781.28 334.79,787.3 330.44,782.96 336.46,776.93 327.95,776.93 	"/>
	<polygon class="st2" points="584.24,694.87 592.76,694.87 586.74,688.85 591.08,684.51 597.1,690.53 597.1,682.01 603.25,682.01 
		603.25,690.53 609.27,684.51 613.62,688.85 607.59,694.87 616.11,694.87 616.11,701.02 607.59,701.02 613.62,707.04 609.27,711.39 
		603.25,705.37 603.25,713.88 597.1,713.88 597.1,705.37 591.08,711.39 586.74,707.04 592.76,701.02 584.24,701.02 	"/>
	<polygon class="st1" points="289.14,720.92 297.65,720.92 291.63,714.9 295.98,710.55 302,716.58 302,708.06 308.14,708.06 
		308.14,716.58 314.17,710.55 318.51,714.9 312.49,720.92 321.01,720.92 321.01,727.07 312.49,727.07 318.51,733.09 314.17,737.43 
		308.14,731.41 308.14,739.93 302,739.93 302,731.41 295.98,737.43 291.63,733.09 297.65,727.07 289.14,727.07 	"/>
	<polygon class="st1" points="433.52,771.99 442.03,771.99 436.01,765.97 440.36,761.62 446.38,767.64 446.38,759.13 452.53,759.13 
		452.53,767.64 458.55,761.62 462.89,765.97 456.87,771.99 465.39,771.99 465.39,778.13 456.87,778.13 462.89,784.15 458.55,788.5 
		452.53,782.48 452.53,790.99 446.38,790.99 446.38,782.48 440.36,788.5 436.01,784.15 442.03,778.13 433.52,778.13 	"/>
	<polygon class="st4" points="331.39,662.7 339.91,662.7 333.89,656.68 338.23,652.34 344.25,658.36 344.25,649.84 350.4,649.84 
		350.4,658.36 356.42,652.34 360.77,656.68 354.75,662.7 363.26,662.7 363.26,668.85 354.75,668.85 360.77,674.87 356.42,679.22 
		350.4,673.2 350.4,681.71 344.25,681.71 344.25,673.2 338.23,679.22 333.89,674.87 339.91,668.85 331.39,668.85 	"/>
	<polygon class="st4" points="518.52,770.78 527.03,770.78 521.01,764.76 525.36,760.41 531.38,766.43 531.38,757.92 537.52,757.92 
		537.52,766.43 543.54,760.41 547.89,764.76 541.87,770.78 550.38,770.78 550.38,776.93 541.87,776.93 547.89,782.95 543.54,787.29 
		537.52,781.27 537.52,789.79 531.38,789.79 531.38,781.27 525.36,787.29 521.01,782.95 527.03,776.93 518.52,776.93 	"/>
	<polygon class="st4" points="54.76,607.9 63.27,607.9 57.25,601.88 61.6,597.54 67.62,603.56 67.62,595.04 73.76,595.04 
		73.76,603.56 79.78,597.54 84.13,601.88 78.11,607.9 86.62,607.9 86.62,614.05 78.11,614.05 84.13,620.07 79.78,624.42 
		73.76,618.39 73.76,626.91 67.62,626.91 67.62,618.39 61.6,624.42 57.25,620.07 63.27,614.05 54.76,614.05 	"/>
	<polygon class="st6" points="534.45,665.22 542.97,665.22 536.94,659.2 541.29,654.86 547.31,660.88 547.31,652.36 553.46,652.36 
		553.46,660.88 559.48,654.86 563.82,659.2 557.8,665.22 566.32,665.22 566.32,671.37 557.8,671.37 563.82,677.39 559.48,681.74 
		553.46,675.72 553.46,684.23 547.31,684.23 547.31,675.72 541.29,681.74 536.94,677.39 542.97,671.37 534.45,671.37 	"/>
	<polygon class="st6" points="587.52,756.05 596.03,756.05 590.01,750.03 594.36,745.69 600.38,751.71 600.38,743.19 606.52,743.19 
		606.52,751.71 612.54,745.69 616.89,750.03 610.87,756.05 619.38,756.05 619.38,762.2 610.87,762.2 616.89,768.22 612.54,772.57 
		606.52,766.55 606.52,775.06 600.38,775.06 600.38,766.55 594.36,772.57 590.01,768.22 596.03,762.2 587.52,762.2 	"/>
	<polygon class="st7" points="502.58,607.87 511.1,607.87 505.08,601.85 509.42,597.51 515.44,603.53 515.44,595.01 521.59,595.01 
		521.59,603.53 527.61,597.51 531.96,601.85 525.94,607.87 534.45,607.87 534.45,614.02 525.94,614.02 531.96,620.04 527.61,624.39 
		521.59,618.37 521.59,626.88 515.44,626.88 515.44,618.37 509.42,624.39 505.08,620.04 511.1,614.02 502.58,614.02 	"/>
	<polygon class="st5" points="584.24,607.87 592.76,607.87 586.74,601.85 591.08,597.51 597.1,603.53 597.1,595.01 603.25,595.01 
		603.25,603.53 609.27,597.51 613.62,601.85 607.59,607.87 616.11,607.87 616.11,614.02 607.59,614.02 613.62,620.04 609.27,624.39 
		603.25,618.37 603.25,626.88 597.1,626.88 597.1,618.37 591.08,624.39 586.74,620.04 592.76,614.02 584.24,614.02 	"/>
	<polygon class="st0" points="85.18,378.2 76.67,378.2 82.69,372.18 78.34,367.83 72.32,373.85 72.32,365.34 66.18,365.34 
		66.18,373.85 60.16,367.83 55.81,372.18 61.83,378.2 53.32,378.2 53.32,384.34 61.83,384.34 55.81,390.36 60.16,394.71 
		66.18,388.69 66.18,397.2 72.32,397.2 72.32,388.69 78.34,394.71 82.69,390.36 76.67,384.34 85.18,384.34 	"/>
	<polygon class="st1" points="151.77,335.58 143.25,335.58 149.27,329.56 144.93,325.22 138.91,331.24 138.91,322.72 132.76,322.72 
		132.76,331.24 126.74,325.22 122.39,329.56 128.41,335.58 119.9,335.58 119.9,341.73 128.41,341.73 122.39,347.75 126.74,352.1 
		132.76,346.07 132.76,354.59 138.91,354.59 138.91,346.07 144.93,352.1 149.27,347.75 143.25,341.73 151.77,341.73 	"/>
	<polygon class="st2" points="160.89,398.48 152.37,398.48 158.39,392.46 154.05,388.12 148.03,394.14 148.03,385.62 141.88,385.62 
		141.88,394.14 135.86,388.12 131.51,392.46 137.53,398.48 129.02,398.48 129.02,404.63 137.53,404.63 131.51,410.65 135.86,414.99 
		141.88,408.97 141.88,417.49 148.03,417.49 148.03,408.97 154.05,414.99 158.39,410.65 152.37,404.63 160.89,404.63 	"/>
	<polygon class="st2" points="14.01,347.89 5.5,347.89 11.52,341.87 7.17,337.52 1.15,343.54 1.15,335.03 -5,335.03 -5,343.54 
		-11.02,337.52 -15.36,341.87 -9.34,347.89 -17.86,347.89 -17.86,354.03 -9.34,354.03 -15.36,360.05 -11.02,364.4 -5,358.38 
		-5,366.89 1.15,366.89 1.15,358.38 7.17,364.4 11.52,360.05 5.5,354.03 14.01,354.03 	"/>
	<polygon class="st3" points="232.7,326.58 224.18,326.58 230.2,320.56 225.86,316.22 219.84,322.24 219.84,313.72 213.69,313.72 
		213.69,322.24 207.67,316.22 203.32,320.56 209.34,326.58 200.83,326.58 200.83,332.73 209.34,332.73 203.32,338.75 207.67,343.1 
		213.69,337.08 213.69,345.59 219.84,345.59 219.84,337.08 225.86,343.1 230.2,338.75 224.18,332.73 232.7,332.73 	"/>
	<polygon class="st4" points="193.89,280.86 185.37,280.86 191.39,274.84 187.05,270.5 181.03,276.52 181.03,268 174.88,268 
		174.88,276.52 168.86,270.5 164.51,274.84 170.53,280.86 162.02,280.86 162.02,287.01 170.53,287.01 164.51,293.03 168.86,297.38 
		174.88,291.35 174.88,299.87 181.03,299.87 181.03,291.35 187.05,297.38 191.39,293.03 185.37,287.01 193.89,287.01 	"/>
	<polygon class="st2" points="322.45,512.08 313.93,512.08 319.96,506.06 315.6,501.71 309.59,507.73 309.59,499.22 303.45,499.22 
		303.45,507.73 297.42,501.71 293.08,506.06 299.09,512.08 290.59,512.08 290.59,518.22 299.09,518.22 293.08,524.24 297.42,528.59 
		303.45,522.57 303.45,531.08 309.59,531.08 309.59,522.57 315.6,528.59 319.96,524.24 313.93,518.22 322.45,518.22 	"/>
	<polygon class="st5" points="101.12,452.58 92.6,452.58 98.62,446.56 94.28,442.22 88.26,448.24 88.26,439.72 82.11,439.72 
		82.11,448.24 76.09,442.22 71.74,446.56 77.76,452.58 69.25,452.58 69.25,458.73 77.76,458.73 71.74,464.75 76.09,469.09 
		82.11,463.07 82.11,471.59 88.26,471.59 88.26,463.07 94.28,469.09 98.62,464.75 92.6,458.73 101.12,458.73 	"/>
	<polygon class="st5" points="144.95,559.34 136.44,559.34 142.46,553.32 138.11,548.97 132.09,554.99 132.09,546.48 125.95,546.48 
		125.95,554.99 119.93,548.97 115.58,553.32 121.6,559.34 113.09,559.34 113.09,565.48 121.6,565.48 115.58,571.5 119.93,575.85 
		125.95,569.83 125.95,578.34 132.09,578.34 132.09,569.83 138.11,575.85 142.46,571.5 136.44,565.48 144.95,565.48 	"/>
	<polygon class="st4" points="211.26,442.16 202.74,442.16 208.77,436.14 204.42,431.79 198.4,437.81 198.4,429.3 192.25,429.3 
		192.25,437.81 186.23,431.79 181.89,436.14 187.91,442.16 179.39,442.16 179.39,448.31 187.91,448.31 181.89,454.33 186.23,458.67 
		192.25,452.65 192.25,461.17 198.4,461.17 198.4,452.65 204.42,458.67 208.77,454.33 202.74,448.31 211.26,448.31 	"/>
	<polygon class="st6" points="83.01,316.91 74.5,316.91 80.52,310.89 76.17,306.54 70.15,312.56 70.15,304.05 64,304.05 64,312.56 
		57.98,306.54 53.64,310.89 59.66,316.91 51.14,316.91 51.14,323.06 59.66,323.06 53.64,329.08 57.98,333.42 64,327.4 64,335.92 
		70.15,335.92 70.15,327.4 76.17,333.42 80.52,329.08 74.5,323.06 83.01,323.06 	"/>
	<polygon class="st6" points="29.94,407.74 21.43,407.74 27.45,401.72 23.1,397.37 17.08,403.39 17.08,394.88 10.94,394.88 
		10.94,403.39 4.92,397.37 0.57,401.72 6.59,407.74 -1.92,407.74 -1.92,413.89 6.59,413.89 0.57,419.91 4.92,424.25 10.94,418.23 
		10.94,426.75 17.08,426.75 17.08,418.23 23.1,424.25 27.45,419.91 21.43,413.89 29.94,413.89 	"/>
	<polygon class="st6" points="83.01,537.74 74.5,537.74 80.52,531.72 76.17,527.37 70.15,533.39 70.15,524.88 64,524.88 64,533.39 
		57.98,527.37 53.64,531.72 59.66,537.74 51.14,537.74 51.14,543.88 59.66,543.88 53.64,549.9 57.98,554.25 64,548.23 64,556.74 
		70.15,556.74 70.15,548.23 76.17,554.25 80.52,549.9 74.5,543.88 83.01,543.88 	"/>
	<polygon class="st6" points="291.34,443.85 282.83,443.85 288.85,437.83 284.5,433.48 278.48,439.5 278.48,430.99 272.33,430.99 
		272.33,439.5 266.31,433.48 261.97,437.83 267.99,443.85 259.47,443.85 259.47,450 267.99,450 261.97,456.02 266.31,460.36 
		272.33,454.34 272.33,462.86 278.48,462.86 278.48,454.34 284.5,460.36 288.85,456.02 282.83,450 291.34,450 	"/>
	<polygon class="st6" points="255.83,584.8 247.31,584.8 253.34,578.78 248.99,574.43 242.97,580.45 242.97,571.94 236.82,571.94 
		236.82,580.45 230.8,574.43 226.46,578.78 232.48,584.8 223.96,584.8 223.96,590.94 232.48,590.94 226.46,596.96 230.8,601.31 
		236.82,595.29 236.82,603.8 242.97,603.8 242.97,595.29 248.99,601.31 253.34,596.96 247.31,590.94 255.83,590.94 	"/>
	<polygon class="st6" points="303.98,204.92 295.47,204.92 301.49,198.9 297.14,194.55 291.12,200.57 291.12,192.06 284.98,192.06 
		284.98,200.57 278.95,194.55 274.61,198.9 280.63,204.92 272.11,204.92 272.11,211.06 280.63,211.06 274.61,217.08 278.95,221.43 
		284.98,215.41 284.98,223.92 291.12,223.92 291.12,215.41 297.14,221.43 301.49,217.08 295.47,211.06 303.98,211.06 	"/>
	<polygon class="st7" points="258.03,378.2 249.52,378.2 255.54,372.18 251.19,367.83 245.17,373.85 245.17,365.34 239.03,365.34 
		239.03,373.85 233.01,367.83 228.66,372.18 234.68,378.2 226.17,378.2 226.17,384.34 234.68,384.34 228.66,390.36 233.01,394.71 
		239.03,388.69 239.03,397.2 245.17,397.2 245.17,388.69 251.19,394.71 255.54,390.36 249.52,384.34 258.03,384.34 	"/>
	<polygon class="st7" points="343.88,397.09 335.37,397.09 341.39,391.07 337.04,386.73 331.02,392.75 331.02,384.23 324.88,384.23 
		324.88,392.75 318.85,386.73 314.51,391.07 320.53,397.09 312.01,397.09 312.01,403.24 320.53,403.24 314.51,409.26 318.85,413.6 
		324.88,407.58 324.88,416.1 331.02,416.1 331.02,407.58 337.04,413.6 341.39,409.26 335.37,403.24 343.88,403.24 	"/>
	<polygon class="st4" points="600.1,416.28 591.58,416.28 597.6,410.26 593.26,405.91 587.24,411.93 587.24,403.42 581.09,403.42 
		581.09,411.93 575.07,405.91 570.72,410.26 576.75,416.28 568.23,416.28 568.23,422.42 576.75,422.42 570.72,428.45 575.07,432.79 
		581.09,426.77 581.09,435.29 587.24,435.29 587.24,426.77 593.26,432.79 597.6,428.45 591.58,422.42 600.1,422.42 	"/>
	<polygon class="st4" points="534.45,540.78 525.94,540.78 531.96,534.76 527.61,530.41 521.59,536.43 521.59,527.92 515.44,527.92 
		515.44,536.43 509.42,530.41 505.08,534.76 511.1,540.78 502.58,540.78 502.58,546.92 511.1,546.92 505.08,552.94 509.42,557.29 
		515.44,551.27 515.44,559.78 521.59,559.78 521.59,551.27 527.61,557.29 531.96,552.94 525.94,546.92 534.45,546.92 	"/>
	<polygon class="st3" points="562.75,213.3 554.24,213.3 560.26,207.28 555.92,202.93 549.89,208.95 549.89,200.44 543.75,200.44 
		543.75,208.95 537.73,202.93 533.38,207.28 539.4,213.3 530.89,213.3 530.89,219.44 539.4,219.44 533.38,225.46 537.73,229.81 
		543.75,223.79 543.75,232.3 549.89,232.3 549.89,223.79 555.92,229.81 560.26,225.46 554.24,219.44 562.75,219.44 	"/>
	<polygon class="st3" points="192.75,213.3 184.24,213.3 190.26,207.28 185.91,202.93 179.89,208.95 179.89,200.44 173.75,200.44 
		173.75,208.95 167.73,202.93 163.38,207.28 169.4,213.3 160.89,213.3 160.89,219.44 169.4,219.44 163.38,225.46 167.73,229.81 
		173.75,223.79 173.75,232.3 179.89,232.3 179.89,223.79 185.91,229.81 190.26,225.46 184.24,219.44 192.75,219.44 	"/>
	<polygon class="st5" points="568.28,339.49 559.77,339.49 565.79,333.46 561.44,329.12 555.42,335.14 555.42,326.63 549.28,326.63 
		549.28,335.14 543.25,329.12 538.91,333.46 544.93,339.49 536.42,339.49 536.42,345.63 544.93,345.63 538.91,351.65 543.25,356 
		549.28,349.98 549.28,358.49 555.42,358.49 555.42,349.98 561.44,356 565.79,351.65 559.77,345.63 568.28,345.63 	"/>
	<polygon class="st4" points="616.03,276.27 607.52,276.27 613.54,270.25 609.19,265.9 603.17,271.92 603.17,263.41 597.02,263.41 
		597.02,271.92 591,265.9 586.66,270.25 592.68,276.27 584.16,276.27 584.16,282.42 592.68,282.42 586.66,288.44 591,292.78 
		597.02,286.76 597.02,295.28 603.17,295.28 603.17,286.76 609.19,292.78 613.54,288.44 607.52,282.42 616.03,282.42 	"/>
	<polygon class="st7" points="119.9,264.93 111.39,264.93 117.41,258.91 113.06,254.56 107.04,260.58 107.04,252.07 100.89,252.07 
		100.89,260.58 94.87,254.56 90.53,258.91 96.55,264.93 88.03,264.93 88.03,271.08 96.55,271.08 90.53,277.1 94.87,281.44 
		100.89,275.42 100.89,283.94 107.04,283.94 107.04,275.42 113.06,281.44 117.41,277.1 111.39,271.08 119.9,271.08 	"/>
	<polygon class="st7" points="37.38,480.21 28.87,480.21 34.89,474.19 30.54,469.85 24.52,475.87 24.52,467.35 18.38,467.35 
		18.38,475.87 12.36,469.85 8.01,474.19 14.03,480.21 5.52,480.21 5.52,486.36 14.03,486.36 8.01,492.38 12.36,496.72 18.38,490.7 
		18.38,499.22 24.52,499.22 24.52,490.7 30.54,496.72 34.89,492.38 28.87,486.36 37.38,486.36 	"/>
	<polygon class="st7" points="242.1,521.81 233.59,521.81 239.61,515.78 235.26,511.44 229.24,517.46 229.24,508.94 223.09,508.94 
		223.09,517.46 217.07,511.44 212.73,515.78 218.75,521.81 210.23,521.81 210.23,527.95 218.75,527.95 212.73,533.97 217.07,538.32 
		223.09,532.3 223.09,540.81 229.24,540.81 229.24,532.3 235.26,538.32 239.61,533.97 233.59,527.95 242.1,527.95 	"/>
	<polygon class="st7" points="536.42,277 527.9,277 533.92,270.97 529.58,266.63 523.55,272.65 523.55,264.14 517.41,264.14 
		517.41,272.65 511.39,266.63 507.04,270.97 513.06,277 504.55,277 504.55,283.14 513.06,283.14 507.04,289.16 511.39,293.51 
		517.41,287.49 517.41,296 523.55,296 523.55,287.49 529.58,293.51 533.92,289.16 527.9,283.14 536.42,283.14 	"/>
	<polygon class="st5" points="270.68,268.13 262.16,268.13 268.18,262.11 263.84,257.77 257.82,263.79 257.82,255.27 251.67,255.27 
		251.67,263.79 245.65,257.77 241.3,262.11 247.32,268.13 238.81,268.13 238.81,274.28 247.32,274.28 241.3,280.3 245.65,284.65 
		251.67,278.63 251.67,287.14 257.82,287.14 257.82,278.63 263.84,284.65 268.18,280.3 262.16,274.28 270.68,274.28 	"/>
	<polygon class="st5" points="29.94,280.86 21.43,280.86 27.45,274.84 23.1,270.5 17.08,276.52 17.08,268 10.94,268 10.94,276.52 
		4.92,270.5 0.57,274.84 6.59,280.86 -1.92,280.86 -1.92,287.01 6.59,287.01 0.57,293.03 4.92,297.38 10.94,291.35 10.94,299.87 
		17.08,299.87 17.08,291.35 23.1,297.38 27.45,293.03 21.43,287.01 29.94,287.01 	"/>
	<polygon class="st2" points="474.8,488.95 466.28,488.95 472.3,482.93 467.96,478.58 461.94,484.6 461.94,476.09 455.79,476.09 
		455.79,484.6 449.77,478.58 445.42,482.93 451.44,488.95 442.93,488.95 442.93,495.09 451.44,495.09 445.42,501.11 449.77,505.46 
		455.79,499.44 455.79,507.95 461.94,507.95 461.94,499.44 467.96,505.46 472.3,501.11 466.28,495.09 474.8,495.09 	"/>
	<polygon class="st2" points="621.79,512.08 613.28,512.08 619.3,506.06 614.95,501.71 608.93,507.73 608.93,499.22 602.79,499.22 
		602.79,507.73 596.76,501.71 592.42,506.06 598.44,512.08 589.92,512.08 589.92,518.22 598.44,518.22 592.42,524.25 596.76,528.59 
		602.79,522.57 602.79,531.09 608.93,531.09 608.93,522.57 614.95,528.59 619.3,524.25 613.28,518.22 621.79,518.22 	"/>
	<polygon class="st5" points="376.88,370.73 385.4,370.73 379.38,364.7 383.72,360.36 389.74,366.38 389.74,357.86 395.89,357.86 
		395.89,366.38 401.91,360.36 406.25,364.7 400.23,370.73 408.75,370.73 408.75,376.87 400.23,376.87 406.25,382.89 401.91,387.24 
		395.89,381.22 395.89,389.73 389.74,389.73 389.74,381.22 383.72,387.24 379.38,382.89 385.4,376.87 376.88,376.87 	"/>
	<polygon class="st1" points="345.89,188.98 354.4,188.98 348.38,182.96 352.73,178.62 358.75,184.64 358.75,176.12 364.89,176.12 
		364.89,184.64 370.91,178.62 375.26,182.96 369.24,188.98 377.75,188.98 377.75,195.13 369.24,195.13 375.26,201.15 370.91,205.5 
		364.89,199.48 364.89,207.99 358.75,207.99 358.75,199.48 352.73,205.5 348.38,201.15 354.4,195.13 345.89,195.13 	"/>
	<polygon class="st1" points="520.48,473.68 529,473.68 522.98,467.66 527.32,463.31 533.34,469.33 533.34,460.82 539.49,460.82 
		539.49,469.33 545.51,463.31 549.85,467.66 543.83,473.68 552.35,473.68 552.35,479.83 543.83,479.83 549.85,485.85 545.51,490.19 
		539.49,484.17 539.49,492.69 533.34,492.69 533.34,484.17 527.32,490.19 522.98,485.85 529,479.83 520.48,479.83 	"/>
	<polygon class="st1" points="137.27,496.15 145.79,496.15 139.77,490.12 144.11,485.78 150.13,491.8 150.13,483.29 156.28,483.29 
		156.28,491.8 162.3,485.78 166.65,490.12 160.62,496.15 169.14,496.15 169.14,502.29 160.62,502.29 166.65,508.31 162.3,512.66 
		156.28,506.64 156.28,515.15 150.13,515.15 150.13,506.64 144.11,512.66 139.77,508.31 145.79,502.29 137.27,502.29 	"/>
	<polygon class="st1" points="290.58,591.97 299.1,591.97 293.08,585.95 297.42,581.6 303.44,587.62 303.44,579.11 309.59,579.11 
		309.59,587.62 315.61,581.6 319.96,585.95 313.94,591.97 322.45,591.97 322.45,598.12 313.94,598.12 319.96,604.14 315.61,608.48 
		309.59,602.46 309.59,610.98 303.44,610.98 303.44,602.46 297.42,608.48 293.08,604.14 299.1,598.12 290.58,598.12 	"/>
	<polygon class="st1" points="-15.93,574.81 -7.42,574.81 -13.44,568.79 -9.09,564.44 -3.07,570.46 -3.07,561.95 3.07,561.95 
		3.07,570.46 9.09,564.44 13.44,568.79 7.42,574.81 15.93,574.81 15.93,580.95 7.42,580.95 13.44,586.98 9.09,591.32 3.07,585.3 
		3.07,593.82 -3.07,593.82 -3.07,585.3 -9.09,591.32 -13.44,586.98 -7.42,580.95 -15.93,580.95 	"/>
	<polygon class="st2" points="268.43,328.27 276.95,328.27 270.93,322.25 275.27,317.9 281.29,323.92 281.29,315.41 287.44,315.41 
		287.44,323.92 293.46,317.9 297.81,322.25 291.79,328.27 300.3,328.27 300.3,334.42 291.79,334.42 297.81,340.44 293.46,344.78 
		287.44,338.76 287.44,347.28 281.29,347.28 281.29,338.76 275.27,344.78 270.93,340.44 276.95,334.42 268.43,334.42 	"/>
	<polygon class="st2" points="471.24,351.93 479.76,351.93 473.74,345.91 478.08,341.56 484.1,347.58 484.1,339.07 490.25,339.07 
		490.25,347.58 496.27,341.56 500.62,345.91 494.6,351.93 503.11,351.93 503.11,358.08 494.6,358.08 500.62,364.1 496.27,368.44 
		490.25,362.42 490.25,370.94 484.1,370.94 484.1,362.42 478.08,368.44 473.74,364.1 479.76,358.08 471.24,358.08 	"/>
	<polygon class="st1" points="336.04,319.65 344.55,319.65 338.53,313.63 342.88,309.28 348.9,315.3 348.9,306.79 355.04,306.79 
		355.04,315.3 361.06,309.28 365.41,313.63 359.39,319.65 367.9,319.65 367.9,325.8 359.39,325.8 365.41,331.82 361.06,336.16 
		355.04,330.14 355.04,338.66 348.9,338.66 348.9,330.14 342.88,336.16 338.53,331.82 344.55,325.8 336.04,325.8 	"/>
	<polygon class="st1" points="163.46,600.73 171.97,600.73 165.95,594.71 170.3,590.36 176.32,596.38 176.32,587.87 182.47,587.87 
		182.47,596.38 188.49,590.36 192.83,594.71 186.81,600.73 195.33,600.73 195.33,606.88 186.81,606.88 192.83,612.9 188.49,617.24 
		182.47,611.22 182.47,619.74 176.32,619.74 176.32,611.22 170.3,617.24 165.95,612.9 171.97,606.88 163.46,606.88 	"/>
	<polygon class="st4" points="305.07,245.16 313.59,245.16 307.57,239.14 311.91,234.8 317.93,240.82 317.93,232.3 324.08,232.3 
		324.08,240.82 330.1,234.8 334.44,239.14 328.42,245.16 336.94,245.16 336.94,251.31 328.42,251.31 334.44,257.33 330.1,261.68 
		324.08,255.65 324.08,264.17 317.93,264.17 317.93,255.65 311.91,261.68 307.57,257.33 313.59,251.31 305.07,251.31 	"/>
	<polygon class="st4" points="405.52,427.84 414.03,427.84 408.01,421.82 412.36,417.47 418.38,423.49 418.38,414.98 424.52,414.98 
		424.52,423.49 430.55,417.47 434.89,421.82 428.87,427.84 437.38,427.84 437.38,433.98 428.87,433.98 434.89,440 430.55,444.35 
		424.52,438.33 424.52,446.84 418.38,446.84 418.38,438.33 412.36,444.35 408.01,440 414.03,433.98 405.52,433.98 	"/>
	<polygon class="st4" points="4.08,204.92 12.59,204.92 6.57,198.9 10.92,194.55 16.94,200.57 16.94,192.06 23.08,192.06 
		23.08,200.57 29.1,194.55 33.45,198.9 27.43,204.92 35.94,204.92 35.94,211.06 27.43,211.06 33.45,217.08 29.1,221.43 
		23.08,215.41 23.08,223.92 16.94,223.92 16.94,215.41 10.92,221.43 6.57,217.08 12.59,211.06 4.08,211.06 	"/>
	<polygon class="st6" points="421.45,322.28 429.97,322.28 423.95,316.26 428.29,311.91 434.31,317.94 434.31,309.42 440.46,309.42 
		440.46,317.94 446.48,311.91 450.82,316.26 444.8,322.28 453.32,322.28 453.32,328.43 444.8,328.43 450.82,334.45 446.48,338.79 
		440.46,332.77 440.46,341.29 434.31,341.29 434.31,332.77 428.29,338.79 423.95,334.45 429.97,328.43 421.45,328.43 	"/>
	<polygon class="st6" points="495.58,416.28 504.09,416.28 498.07,410.26 502.42,405.91 508.44,411.93 508.44,403.42 514.58,403.42 
		514.58,411.93 520.6,405.91 524.95,410.26 518.93,416.28 527.44,416.28 527.44,422.42 518.93,422.42 524.95,428.45 520.6,432.79 
		514.58,426.77 514.58,435.29 508.44,435.29 508.44,426.77 502.42,432.79 498.07,428.45 504.09,422.42 495.58,422.42 	"/>
	<polygon class="st6" points="353.39,464.95 361.9,464.95 355.88,458.93 360.23,454.58 366.25,460.6 366.25,452.09 372.4,452.09 
		372.4,460.6 378.42,454.58 382.76,458.93 376.74,464.95 385.26,464.95 385.26,471.09 376.74,471.09 382.76,477.11 378.42,481.46 
		372.4,475.44 372.4,483.95 366.25,483.95 366.25,475.44 360.23,481.46 355.88,477.11 361.9,471.09 353.39,471.09 	"/>
	<polygon class="st7" points="389.58,264.93 398.1,264.93 392.08,258.91 396.42,254.56 402.45,260.58 402.45,252.07 408.59,252.07 
		408.59,260.58 414.61,254.56 418.96,258.91 412.94,264.93 421.45,264.93 421.45,271.08 412.94,271.08 418.96,277.1 414.61,281.44 
		408.59,275.42 408.59,283.94 402.45,283.94 402.45,275.42 396.42,281.44 392.08,277.1 398.1,271.08 389.58,271.08 	"/>
	<polygon class="st5" points="449.45,229.23 457.97,229.23 451.95,223.21 456.29,218.86 462.31,224.88 462.31,216.37 468.46,216.37 
		468.46,224.88 474.48,218.86 478.83,223.21 472.81,229.23 481.32,229.23 481.32,235.38 472.81,235.38 478.83,241.4 474.48,245.74 
		468.46,239.72 468.46,248.24 462.31,248.24 462.31,239.72 456.29,245.74 451.95,241.4 457.97,235.38 449.45,235.38 	"/>
</g>
</svg>
