<svg width="18" height="107" viewBox="0 0 18 107" fill="none" xmlns="http://www.w3.org/2000/svg">
<path d="M5.59307 98.3344C4.97292 97.5722 4.36063 96.7942 3.71693 96.0479C3.37153 95.6429 3.01043 95.238 2.59438 94.9205C1.84863 94.3488 1.04009 94.2615 0.36499 95.0316C-0.239459 95.7223 -0.0196595 96.421 0.490589 97.0959C2.22543 99.3983 3.94458 101.717 5.67157 104.027C5.94632 104.392 6.18967 104.781 6.49582 105.115C7.61837 106.322 8.79586 106.337 9.71431 105.012C11.8731 101.883 13.969 98.7076 16.0649 95.5318C16.6223 94.6902 16.7165 93.8089 15.8373 93.0785C15.1151 92.483 14.2437 92.5942 13.4744 93.5628C12.2499 95.1031 11.143 96.7307 9.68291 98.7393C9.33751 96.6354 9.00781 94.976 8.80371 93.3087C8.51326 90.9666 8.25421 88.6086 8.10507 86.2505C7.92452 83.3844 8.83511 80.8199 10.57 78.581C11.6847 77.136 12.9092 75.7784 14.0632 74.3731C16.7243 71.1179 17.2974 67.5372 15.5154 63.6945C14.5891 61.6937 13.443 59.8041 12.3912 57.8669C11.3471 55.9297 10.201 54.0321 9.27471 52.0314C8.01086 49.3002 8.16786 46.5055 9.64366 43.8934C10.4993 42.377 11.5355 40.9558 12.5638 39.5426C13.4116 38.3755 14.385 37.2957 15.2564 36.1524C18.2943 32.1509 18.8517 27.816 16.7479 23.2428C15.8294 21.2421 14.6284 19.3763 13.5372 17.4629C12.556 15.748 11.4335 14.1045 10.5857 12.3181C9.34536 9.70601 9.76141 7.7132 11.8181 5.65687C12.9406 4.52946 14.1338 3.48145 15.7745 3.11624C16.7008 2.90981 17.1561 2.18732 16.9441 1.21077C16.7557 0.337425 15.7588 -0.154823 14.7697 0.0436632C10.3737 0.932885 6.19752 6.53816 6.82552 10.9604C7.03746 12.4292 7.64976 13.8981 8.31701 15.2398C9.13341 16.8674 10.201 18.368 11.1587 19.9241C11.6768 20.7657 12.2184 21.5994 12.6973 22.4648C15.5704 27.681 15.2721 30.8727 11.5826 35.4617C10.1539 37.2401 8.71736 39.0265 7.47707 40.924C4.61182 45.3066 4.33707 49.9115 6.74702 54.5958C7.79106 56.6204 9.03136 58.5497 10.1147 60.5584C11.0488 62.2971 11.9751 64.0518 12.7522 65.862C13.6 67.8389 13.2232 69.7602 12.0222 71.5069C11.5512 72.1977 11.0567 72.8884 10.4522 73.46C5.15347 78.5096 3.91318 84.7341 5.16132 91.7208C5.54597 93.8645 5.78932 96.032 6.09547 98.1836C5.93062 98.2233 5.75792 98.2709 5.59307 98.3106L5.59307 98.3344Z" fill="#0400C4"/>
</svg>
